#!OML:ASF E:\emotionWalksFemale\Project 1\Capture day 1\Session 1\Female1.ASF
:FULLY-SPECIFIED
:DEGREES
2418
root 10.2768 15.1824 40.5911 181.989 9.94908 -177.807
lowerback 9.06634 0.645376 4.04654
upperback 2.84512 1.56977 2.30829
thorax -2.09332 0.900535 -0.0582907
lowerneck -0.128998 5.30011 9.37338
upperneck 1.2981 7.93829 -17.4712
head 1.49309 4.10937 -6.68171
rclavicle -2.18663e-014 7.95139e-016
rhumerus -24.5178 15.1192 -74.7012
rradius 26.7625
rwrist 28.174
rhand -2.40539 -54.681
rfingers 7.12502
rthumb 23.2845 -83.293
lclavicle -2.18663e-014 7.95139e-016
lhumerus -18.2826 3.1636 78.1739
lradius 46.6843
lwrist 1.66948
lhand -13.2037 -38.1535
lfingers 7.12502
lthumb 12.8969 -8.57202
rfemur -3.97992 6.76717 31.7473
rtibia 22.3225
rfoot -24.8869 -28.1929
rtoes 6.62672
lfemur -27.6138 -14.5659 -17.3011
ltibia 36.3177
lfoot -25.304 9.54856
ltoes -18.0899
2419
root 10.3048 15.1786 40.6444 182.289 8.35714 -177.896
lowerback 10.1715 0.520298 3.29069
upperback 2.02915 1.41627 2.73354
thorax -3.58546 0.790369 0.796487
lowerneck -0.0809076 5.18707 9.06974
upperneck 2.35272 7.91039 -16.9829
head 1.75032 4.06903 -6.46771
rclavicle -1.8487e-014 -2.62396e-014
rhumerus -24.9196 15.1873 -74.0848
rradius 26.8577
rwrist 28.1327
rhand -3.03999 -54.3057
rfingers 7.12502
rthumb 22.6756 -82.9935
lclavicle -1.8487e-014 -2.62396e-014
lhumerus -19.7009 4.96754 78.0955
lradius 46.1018
lwrist 0.973843
lhand -12.708 -38.1993
lfingers 7.12502
lthumb 13.3746 -8.64854
rfemur -4.57233 6.86869 31.9388
rtibia 22.459
rfoot -25.6691 -29.1642
rtoes 8.69363
lfemur -28.3664 -14.108 -17.3328
ltibia 36.5306
lfoot -25.0576 8.98478
ltoes -18.0228
2420
root 10.3324 15.1697 40.6982 182.583 6.7709 -177.981
lowerback 10.4124 0.338144 2.90476
upperback 1.7397 1.16308 2.95678
thorax -4.0352 0.663052 1.27525
lowerneck 0.121333 5.10793 8.77094
upperneck 2.66664 7.80663 -16.3905
head 1.7565 4.01136 -6.23893
rclavicle -5.76476e-015 -2.78299e-014
rhumerus -24.5181 14.7717 -73.5396
rradius 26.8887
rwrist 28.2939
rhand -5.4327 -53.3311
rfingers 7.12502
rthumb 20.3776 -82.2819
lclavicle -5.76476e-015 -2.78299e-014
lhumerus -20.3138 6.45829 77.7845
lradius 45.4374
lwrist 0.283454
lhand -12.7185 -37.537
lfingers 7.12502
lthumb 13.3646 -7.98561
rfemur -5.13442 6.91547 32.122
rtibia 22.5289
rfoot -26.4015 -30.2635
rtoes 10.897
lfemur -29.1579 -13.9189 -17.3157
ltibia 36.8488
lfoot -24.7849 8.62427
ltoes -19.0077
2421
root 10.3581 15.1496 40.7565 182.103 5.21511 -177.94
lowerback 11.5599 0.0782393 2.82061
upperback 1.68065 0.899656 3.07452
thorax -4.73713 0.539545 1.47617
lowerneck 0.148818 5.08518 8.5722
upperneck 3.01948 7.74168 -15.6126
head 1.80701 3.95959 -5.96228
rclavicle -1.11319e-014 -2.46493e-014
rhumerus -24.0778 14.0842 -73.1724
rradius 27.0805
rwrist 28.3081
rhand -6.47475 -52.7509
rfingers 7.12502
rthumb 19.3759 -81.8056
lclavicle -1.11319e-014 -2.46493e-014
lhumerus -20.9199 7.79029 77.2436
lradius 44.6467
lwrist 0.0817804
lhand -13.1015 -37.0478
lfingers 7.12502
lthumb 12.9954 -7.47251
rfemur -4.78826 7.05371 32.5509
rtibia 22.5006
rfoot -27.3427 -31.5211
rtoes 12.6465
lfemur -29.1043 -13.8628 -17.3316
ltibia 37.2813
lfoot -24.7047 8.28886
ltoes -20.1531
2422
root 10.3841 15.1148 40.8276 180.341 3.62928 -177.861
lowerback 14.2835 -0.232491 2.8013
upperback 1.94832 0.69635 3.12095
thorax -5.96376 0.46664 1.56518
lowerneck -0.0613599 5.02172 8.47982
upperneck 3.48626 7.60643 -14.7712
head 1.92523 3.86189 -5.67957
rclavicle -5.1684e-015 -3.81667e-014
rhumerus -23.6319 13.0162 -72.8922
rradius 27.3464
rwrist 28.2014
rhand -6.53497 -53.1955
rfingers 7.12502
rthumb 19.318 -82.256
lclavicle -5.1684e-015 -3.81667e-014
lhumerus -21.4181 8.87441 76.5753
lradius 43.7035
lwrist 0.00215545
lhand -13.3643 -36.8214
lfingers 7.12502
lthumb 12.742 -7.23014
rfemur -2.98558 7.15915 33.2403
rtibia 22.3494
rfoot -28.7669 -32.858
rtoes 14.7964
lfemur -27.6234 -13.3153 -17.721
ltibia 37.7712
lfoot -24.5688 7.52685
ltoes -21.104
